
<svg xmlns="http://www.w3.org/2000/svg" version="1.1" viewBox="0 0 800 800">
  <defs>
    <style>
		#wordmark {
		  --navy: #0f204c;
		}
      .cls-1 {
        stroke: #231f20;
        stroke-miterlimit: 10;
      }

      .cls-1, .cls-2 {
        fill: var(--navy);
      }

      .cls-3 {
        isolation: isolate;
      }

      .cls-4 {
        fill: #fff;
      }

      .cls-5 {
        mix-blend-mode: lighten;
        opacity: .2;
      }

      .cls-6 {
        fill: #e6e7e8;
      }

      .cls-7 {
        display: none;
      }
    </style>
  </defs>
  <g id="wordmark" class="wordmark">
    <g id="moonmaiden" class="cls-5">
      <path id="moonmaiden-2" data-name="moonmaiden" class="cls-2" d="M629,80.6c2.5,1.4,7.6,3.5,11.6,7,4.4,3.8,7.8,8.8,11.3,13.5,2.2,2.8,3.8,6.2,6.3,8.8,6.2,6.6,8.7,13.8,5.9,22.5-.7,2.2-.1,4.8-.6,7.2-.7,3.7-1.5,7.4-3.1,10.8-1.6,3.7-6.3,7.6-5.4,10.1,1.6,4.9,5.6,9.4,9.4,13.5,5.7,6.2,11.7,12.1,18.3,17.6,11.7,9.7,20.2,21.2,24.5,35.4,7.8,25.8,15.8,51.5,23.2,77.4,2.5,8.8-4.5,15.5-9.1,22.1-13.4,19.2-27.3,38.2-41.2,57-5.1,6.9-8.9,13.9-7.5,22.6,2.6,15.7-4.1,26.3-18.6,33.3-12.9,6.2-20.8,16.7-27.3,29.1-4.4,8.4-10.4,16.4-17.2,23.3-31.7,32.4-66.3,61.5-108.6,80.9-25.7,11.8-52.5,20.2-81.1,23-16.7,1.5-33.4,3.7-50.2,4.2-26.4.8-52.4-2.9-78-8.6-30.2-6.7-60.3-14.3-87.7-29.1-19.1-10.3-36.7-22.2-52.7-36.4-26.1-23.2-49-49-66.8-78.5-15.4-25.7-28.6-52.3-32.1-82.5-1-8.4-4-16.9-7.6-24.4-6.7-13.6-4.3-27.7-2.2-41,3.5-21.5,10.1-42.6,14.4-64.1,4.1-20.5,13.2-38.9,23.3-57,14.2-25.1,32.7-47.6,53.7-67.8,27-26,57.9-46.5,95.4-57.6,18.2-5.3,35.5-13.8,53.5-19.4,12-3.7,24.8-4.9,37.3-6.7,19.2-2.7,38.7-4.2,57.9-7.3,18-2.9,35.9-7.4,53.8-10.8,2.6-.4,6.2,1,8.7,2.5,34.3,21.5,68.7,43.1,103,64.8,11.6,7.3,23.3,14.6,35.1,21.8,1.6,1,4.5,1.5,5.7.7,7-4.9,15.4-4.8,23.3-6.6,7.2-1.3,13.1-6.5,21.4-11.2ZM580.2,132.9c-7.9,3.8-12.3,1.8-14.5-6-1.3-4.6-3.8-9.8-7.3-12.9-14.4-12.6-29.2-25-44.3-36.8-20-15.6-39.6-31.6-60.7-45.5-20.8-13.6-45-12.6-68.8-8.1-20.7,3.9-40.1,11.5-58.4,21.4-23.3,12.6-43.1,29.5-59.3,50.1-13.8,17.7-17.3,39.3-26.6,58.7-.9,1.8-.3,4.4-.3,6.5-.4,12.5-1.3,25.1-1.5,37.6,0,10.1.3,20.4,1.5,30.5,1.5,12.8,4,25.4,6.2,38.2.4,2.4,1.3,6.3,2.9,6.7,7.5,2,4.4,5.9,2.1,9.3-2.5,3.5-5.6,6.7-8.7,9.8-8.9,8.8-9.2,12.6-2.3,23,10.7,16.2,24.8,29.4,40.6,40.6-5.7,7.6-13.2,11.7-22.3,14.2-7,2-13.6,5.3-20.4,8.1-4,1.7-3.7,3.5-1.5,7,6.6,10.7,13.1,21.5,18.5,32.7,2.6,5.5,7.6,11.2,3.5,18.1-5.6,9.7-3.8,19,3.2,26.5,11.3,12.2,22.9,24.3,35.5,35.1,8.1,6.9,18.2,11.4,27.6,17,3.8,2.2,7,2.2,10.3-1.5,5.7-6.5,11.9-12.5,17.9-18.7,22.6-23.7,37-51.8,48.7-81.5,9.5-24.3,19.2-48.5,34.8-70.1,2.8-3.8,5.4-5.3,10.3-5.3,8.2,0,16.6-.1,24.8-1.5,8.9-1.5,11.7-9.8,6.3-16.7-4.1-5.2-4.4-11.5.1-14,7.2-4.1,14.8-7.3,23.3-4.2,12.2,4.2,24.6,7.7,36.1,13.1,24.9,11.8,49.4,24.7,74.1,37.2,2.5-4.9,5.4-10.4,8.1-16,5.9-12.6,12-25.1,17.2-37.9,4-9.7-.9-17-11.3-19.4-5-1.3-10.1-2.5-14.8-4.4-8.9-3.7-10.6-11.7-4.1-18.5,6.2-6.6,12.9-12.9,18.9-19.8,3.2-3.8,5.9-8.1,8.1-12.6,5.4-10.8,5.1-22.5,4.3-34-.3-3.4-3.1-7.3-6-9.7-5.3-4.2-10.4-.4-15.1,2.1-6.9,3.8-12.9,2.8-17.8-2.5-5-5.6-10.6-10.7-16.3-16.4,10.7-9.4,1.6-18.8-2.5-29.4ZM439.6,540.1c8.9-2.5,18-5.8,27.4-7.6,13.5-2.7,18.8-11.8,23-22.8,1.9-4.9.6-8.4-1.6-12.8-1.9-3.9-2.5-9.1-1.5-13.2,1.5-6.2,4.5-12.1,7.5-17.8,5-9.7,6.6-19.1,3.1-30.1-5.1-15.3-10.4-30.6-11-47.2-.4-13.1-7.6-19.8-21.6-19.2-8.4.4-10,1.8-10.1,9.8-.3,10.1-3.4,18.5-10.7,26.5-12.9,14.2-24.6,29.5-35.9,44.8-3.4,4.6-7.5,11.4.7,16.9,1.3,1,1.3,4.9.7,7.2-1.5,5.9-7.6,5.6-11.7,5.3-13.5-.7-20.5,6-25.8,16.7-1.8,3.7-6.9,6.5-11,8.1-5.9,2.2-12.8,2.2-18.5,4.8-3.1,1.4-5,6-6.2,9.6-.3.8,4.7,3.9,7.5,4.8,5.4,1.7,11.1,2.4,16.6,3.9,17.8,5.2,35.6,9.4,54.6,8,3.7-.3,7.3.8,11,1.5,4.3,1,8.4,1.8,13.5,2.7ZM520.5,375.8c3.5,14.6,0,28.4-2.5,42.1-2.6,14.2-6.9,28.4,2.8,42.1,5.4,7.9,3.5,10-4.3,16.6-6.3,5.3-15,9.7-14.5,19.9.4,9.6.1,19.2.1,29.5,5-.3,10.7.6,15.3-1.3,10.9-4.5,21.9-9.3,31.5-15.6,31.2-20.4,60.9-42.7,88-67.8,3.5-3.2,7.3-5.9,4.3-12.1-6,0-12.8,1-19.1-.1-18.9-3.7-36.2-11.5-52.4-21.6-16.3-10.4-32.6-20.9-49.3-31.7ZM687.1,345.8c3.4-4.6,6.6-8.4,9.2-12.8,2.6-4.4,4.3-9.1,7-13.3,8.5-12.6,2.9-20.2-9.7-28.5-2.1,17.8-4.4,36-6.6,54.6Z"/>
      <path id="moonmaiden-3" data-name="moonmaiden" class="cls-4" d="M629,80.6c2.5,1.4,7.6,3.5,11.6,7,4.4,3.8,7.8,8.8,11.3,13.5,2.2,2.8,3.8,6.2,6.3,8.8,6.2,6.6,8.7,13.8,5.9,22.5-.7,2.2-.1,4.8-.6,7.2-.7,3.7-1.5,7.4-3.1,10.8-1.6,3.7-6.3,7.6-5.4,10.1,1.6,4.9,5.6,9.4,9.4,13.5,5.7,6.2,11.7,12.1,18.3,17.6,11.7,9.7,20.2,21.2,24.5,35.4,7.8,25.8,15.8,51.5,23.2,77.4,2.5,8.8-4.5,15.5-9.1,22.1-13.4,19.2-27.3,38.2-41.2,57-5.1,6.9-8.9,13.9-7.5,22.6,2.6,15.7-4.1,26.3-18.6,33.3-12.9,6.2-20.8,16.7-27.3,29.1-4.4,8.4-10.4,16.4-17.2,23.3-31.7,32.4-66.3,61.5-108.6,80.9-25.7,11.8-52.5,20.2-81.1,23-16.7,1.5-33.4,3.7-50.2,4.2-26.4.8-52.4-2.9-78-8.6-30.2-6.7-60.3-14.3-87.7-29.1-19.1-10.3-36.7-22.2-52.7-36.4-26.1-23.2-49-49-66.8-78.5-15.4-25.7-28.6-52.3-32.1-82.5-1-8.4-4-16.9-7.6-24.4-6.7-13.6-4.3-27.7-2.2-41,3.5-21.5,10.1-42.6,14.4-64.1,4.1-20.5,13.2-38.9,23.3-57,14.2-25.1,32.7-47.6,53.7-67.8,27-26,57.9-46.5,95.4-57.6,18.2-5.3,35.5-13.8,53.5-19.4,12-3.7,24.8-4.9,37.3-6.7,19.2-2.7,38.7-4.2,57.9-7.3,18-2.9,35.9-7.4,53.8-10.8,2.6-.4,6.2,1,8.7,2.5,34.3,21.5,68.7,43.1,103,64.8,11.6,7.3,23.3,14.6,35.1,21.8,1.6,1,4.5,1.5,5.7.7,7-4.9,15.4-4.8,23.3-6.6,7.2-1.3,13.1-6.5,21.4-11.2ZM580.2,132.9c-7.9,3.8-12.3,1.8-14.5-6-1.3-4.6-3.8-9.8-7.3-12.9-14.4-12.6-29.2-25-44.3-36.8-20-15.6-39.6-31.6-60.7-45.5-20.8-13.6-45-12.6-68.8-8.1-20.7,3.9-40.1,11.5-58.4,21.4-23.3,12.6-43.1,29.5-59.3,50.1-13.8,17.7-17.3,39.3-26.6,58.7-.9,1.8-.3,4.4-.3,6.5-.4,12.5-1.3,25.1-1.5,37.6,0,10.1.3,20.4,1.5,30.5,1.5,12.8,4,25.4,6.2,38.2.4,2.4,1.3,6.3,2.9,6.7,7.5,2,4.4,5.9,2.1,9.3-2.5,3.5-5.6,6.7-8.7,9.8-8.9,8.8-9.2,12.6-2.3,23,10.7,16.2,24.8,29.4,40.6,40.6-5.7,7.6-13.2,11.7-22.3,14.2-7,2-13.6,5.3-20.4,8.1-4,1.7-3.7,3.5-1.5,7,6.6,10.7,13.1,21.5,18.5,32.7,2.6,5.5,7.6,11.2,3.5,18.1-5.6,9.7-3.8,19,3.2,26.5,11.3,12.2,22.9,24.3,35.5,35.1,8.1,6.9,18.2,11.4,27.6,17,3.8,2.2,7,2.2,10.3-1.5,5.7-6.5,11.9-12.5,17.9-18.7,22.6-23.7,37-51.8,48.7-81.5,9.5-24.3,19.2-48.5,34.8-70.1,2.8-3.8,5.4-5.3,10.3-5.3,8.2,0,16.6-.1,24.8-1.5,8.9-1.5,11.7-9.8,6.3-16.7-4.1-5.2-4.4-11.5.1-14,7.2-4.1,14.8-7.3,23.3-4.2,12.2,4.2,24.6,7.7,36.1,13.1,24.9,11.8,49.4,24.7,74.1,37.2,2.5-4.9,5.4-10.4,8.1-16,5.9-12.6,12-25.1,17.2-37.9,4-9.7-.9-17-11.3-19.4-5-1.3-10.1-2.5-14.8-4.4-8.9-3.7-10.6-11.7-4.1-18.5,6.2-6.6,12.9-12.9,18.9-19.8,3.2-3.8,5.9-8.1,8.1-12.6,5.4-10.8,5.1-22.5,4.3-34-.3-3.4-3.1-7.3-6-9.7-5.3-4.2-10.4-.4-15.1,2.1-6.9,3.8-12.9,2.8-17.8-2.5-5-5.6-10.6-10.7-16.3-16.4,10.7-9.4,1.6-18.8-2.5-29.4ZM439.6,540.1c8.9-2.5,18-5.8,27.4-7.6,13.5-2.7,18.8-11.8,23-22.8,1.9-4.9.6-8.4-1.6-12.8-1.9-3.9-2.5-9.1-1.5-13.2,1.5-6.2,4.5-12.1,7.5-17.8,5-9.7,6.6-19.1,3.1-30.1-5.1-15.3-10.4-30.6-11-47.2-.4-13.1-7.6-19.8-21.6-19.2-8.4.4-10,1.8-10.1,9.8-.3,10.1-3.4,18.5-10.7,26.5-12.9,14.2-24.6,29.5-35.9,44.8-3.4,4.6-7.5,11.4.7,16.9,1.3,1,1.3,4.9.7,7.2-1.5,5.9-7.6,5.6-11.7,5.3-13.5-.7-20.5,6-25.8,16.7-1.8,3.7-6.9,6.5-11,8.1-5.9,2.2-12.8,2.2-18.5,4.8-3.1,1.4-5,6-6.2,9.6-.3.8,4.7,3.9,7.5,4.8,5.4,1.7,11.1,2.4,16.6,3.9,17.8,5.2,35.6,9.4,54.6,8,3.7-.3,7.3.8,11,1.5,4.3,1,8.4,1.8,13.5,2.7ZM520.5,375.8c3.5,14.6,0,28.4-2.5,42.1-2.6,14.2-6.9,28.4,2.8,42.1,5.4,7.9,3.5,10-4.3,16.6-6.3,5.3-15,9.7-14.5,19.9.4,9.6.1,19.2.1,29.5,5-.3,10.7.6,15.3-1.3,10.9-4.5,21.9-9.3,31.5-15.6,31.2-20.4,60.9-42.7,88-67.8,3.5-3.2,7.3-5.9,4.3-12.1-6,0-12.8,1-19.1-.1-18.9-3.7-36.2-11.5-52.4-21.6-16.3-10.4-32.6-20.9-49.3-31.7ZM687.1,345.8c3.4-4.6,6.6-8.4,9.2-12.8,2.6-4.4,4.3-9.1,7-13.3,8.5-12.6,2.9-20.2-9.7-28.5-2.1,17.8-4.4,36-6.6,54.6Z"/>
    </g>
    <g id="copy">
      <g id="despair">
        <g id="despair-backer">
          <path id="background-path" class="cls-2" d="M0,550v250h800v-250H0ZM149.3,722.9c0,12.7-.4,26.6-6.9,37-8.4,13.6-21.9,14.5-33.7,14.5h-56.8v-204.2h55.3c1.1,0,10.7,0,16.9,1.7,4.1,1.2,13.9,4.6,20.2,17.9,3.4,7.2,4.9,14.5,4.9,31.2v101.8ZM245.6,606.1h-41.6v47.1h39.2v35.9h-39.2v49.2h41.6v36.2h-78.2v-204.2h78.2v35.9ZM337.8,762.8c-6.9,9-16.9,14.5-37.3,14.5s-37.3-8.4-43.3-22.8c-3.9-9.8-4.1-22.6-4.1-33.3v-12.1h36.2v16.2c0,4.6,0,16.2,10.7,16.2s11.6-7.8,11.6-14.2-.2-12.7-1.7-16.2c-1.9-4.3-5.6-7.8-12-14.2l-21.9-21.4c-3.9-3.8-7.7-7.2-11.4-11.6-6.2-7.8-9.9-16.5-9.9-38.5s0-9.5.9-17.6c.6-7.2,2.4-26.3,17.6-35.3,8.1-4.9,20.2-6.1,28.7-6.1s13.1.6,19.9,2.6c12.4,3.8,16.7,12.7,19.1,19.7,4.5,13.6,3.9,29.8,3.6,44.2h-34.5v-14.5c0-10.4-.9-17.1-10.3-17.1s-3.4,0-5.8,2.3c-3.6,3.5-3.2,10.7-3.2,15.9s-.2,10.7,2.1,15c.9,1.7,2.1,3.2,4.7,5.8l31.1,29.2c1.7,1.4,6.4,5.5,10.7,11.3,6,8.1,8.8,17.1,8.8,39s-1.3,30.9-10.5,42.8ZM457.8,611.8v42.2c0,3.5,0,6.9-.2,10.4-.2,4-.9,20.5-10.7,29.2-6.9,6.1-14.6,6.1-22.5,6.1h-26.6v74.6h-36.4v-204.2h61.1c8.6,0,11.8.3,16.1,1.7,20.4,6.9,19.3,31.5,19.3,39.9ZM536.5,774.4l-5.1-46.6h-28.1l-5.4,46.6h-35.8l30.7-204.2h48.9l30.7,204.2h-35.8ZM619,774.4h-36.7v-204.2h36.7v204.2ZM700.5,774.4l-20.6-87.1h-6v87.1h-34.3v-204.2h51.7c20.2,0,31.1,6.9,35.8,22.3,2.4,7.8,3.4,19.1,3.4,35.3,0,31.8-4.3,43.7-19.1,53.2l25.5,93.4h-36.4Z"/>
          <path id="p-path" class="cls-2" d="M423.3,616.2c-.2-2.6-.4-9-6-10.4-2.4-.6-11.1-.9-19.5-.9v59h12.4c.2,0,5.1.3,8.1-1.4,5.4-2.9,5.1-11.6,5.1-17.9.2-13,.2-23.7-.2-28.3Z"/>
          <polygon id="a-path" class="cls-2" points="507.3 693.4 527.7 693.4 517.6 602.6 507.3 693.4"/>
          <path id="d-path" class="cls-2" d="M98.7,605.5h-11.1v133.6h11.6c3.9,0,4.5-.3,6.6-1.2,6.2-2.3,6.6-9.3,6.6-16.2v-97.8c0-.3.2-5.2-.4-8.1-2.1-11.3-11.4-10.4-13.3-10.4Z"/>
          <path id="r-path" class="cls-2" d="M685,605.5h-11.1v46.9h11.4c9.6,0,12.6-4.6,12.6-21.1s-.2-12.7-.6-16.2c-.6-6.7-4.3-9.5-12.2-9.5Z"/>
        </g>
      </g>
      <g id="autocratic">
        <g id="word">
          <path class="cls-1" d="M724.4,540c-7,11.8-17.8,12.3-26.7,12.3-12.8,0-19.4-3.9-24.1-11.1-1-1.3-3.2-4.6-4.7-10.3-1.7-6.2-2.4-12.1-2.4-25.5v-89.5c0-14.4.7-26,6.8-36.5,4.6-8.2,11.8-14.4,25.4-14.4s26.6,10.5,30.2,24.4c2.2,8,2.3,15.7,2.3,24.2v21.9h-24.1v-22.9c0-2.6,0-4.9-.3-7.5-1-7.5-4.6-8.5-8.2-8.5s-3.4.3-4.9,2.1c-3.2,3.9-2.7,13.4-2.7,14.4v90.3c0,11.6.9,18,8.2,18s2.2,0,3.6-.8c4.3-2.8,4.2-10.8,4.2-17.2v-22.6h24.9v16.2c0,15.4-.3,31.4-7.2,43Z"/>
          <path class="cls-1" d="M629.5,550v-181.6h24.6v181.6h-24.6Z"/>
          <path class="cls-1" d="M601.2,400v150h-24.9v-150h-20.1v-31.6h65.2v31.6h-20.3Z"/>
          <path class="cls-1" d="M535.6,550l-3.4-41.4h-18.8l-3.6,41.4h-24l20.5-181.6h32.8l20.5,181.6h-24ZM523,397.2l-6.9,80.8h13.7l-6.8-80.8Z"/>
          <path class="cls-1" d="M459,550l-13.8-77.4h-4v77.4h-23v-181.6h34.6c13.5,0,20.8,6.2,24,19.8,1.6,6.9,2.3,17,2.3,31.4,0,28.3-2.9,38.8-12.8,47.3l17.1,83.1h-24.4ZM456.9,408.2c-.4-5.9-2.9-8.5-8.2-8.5h-7.5v41.7h7.6c6.5,0,8.5-4.1,8.5-18.8s-.1-11.3-.4-14.4Z"/>
          <path class="cls-1" d="M400.7,540c-7,11.8-17.8,12.3-26.7,12.3-12.8,0-19.4-3.9-24.1-11.1-1-1.3-3.2-4.6-4.7-10.3-1.7-6.2-2.4-12.1-2.4-25.5v-89.5c0-14.4.7-26,6.8-36.5,4.6-8.2,11.8-14.4,25.4-14.4s26.6,10.5,30.2,24.4c2.2,8,2.3,15.7,2.3,24.2v21.9h-24.1v-22.9c0-2.6,0-4.9-.3-7.5-1-7.5-4.6-8.5-8.2-8.5s-3.4.3-4.9,2.1c-3.2,3.9-2.7,13.4-2.7,14.4v90.3c0,11.6.9,18,8.2,18s2.2,0,3.6-.8c4.3-2.8,4.2-10.8,4.2-17.2v-22.6h24.9v16.2c0,15.4-.3,31.4-7.2,43Z"/>
          <path class="cls-1" d="M326.1,534c-4.6,10.8-11.8,18.3-27,18.3s-18.1-1.5-25.3-12.9c-1.3-2.1-4.2-6.9-5.9-14.9-1.7-7.5-2.4-14.4-2.4-30.1v-74.9c0-12.9.6-23.2,4.7-34.2,6.6-17.5,17.4-20.6,28.3-20.6s17.5,1.8,24.4,12.6c1.7,2.8,4.9,8.5,6.8,18.3,1.7,9.3,1.7,18.5,1.7,28v69.5c0,14.9-.1,28.6-5.3,40.9ZM307,411.8c0-3.9,0-4.4-.3-6.4-1.1-7.7-5-8.2-8.6-8.2s-3-.3-4.9,1.5c-3.4,3.1-3,12.6-3,13.1v93.1c0,7.2-.3,15.4,8.3,15.4s3.2,0,5-1.5c3.2-2.8,3.4-8.5,3.4-13.9v-93.1Z"/>
          <path class="cls-1" d="M238.5,400v150h-24.9v-150h-20.1v-31.6h65.2v31.6h-20.3Z"/>
          <path class="cls-1" d="M184.4,520.2c-2.2,19-9.6,32.7-30.5,32.7s-26.6-9.8-30.2-23.4c-2.4-9.3-2.4-19.3-2.4-29.1v-132h24.4v136.9c0,.5,0,5.4.7,8.5,1.6,7.5,5.9,7.7,7,7.7s2.4-.3,4.2-2.1c3-2.8,3-8,3-13.4v-137.6h24.6v130.7c0,1.8.1,12.6-.9,21.1Z"/>
          <path class="cls-1" d="M90.7,550l-3.4-41.4h-18.8l-3.6,41.4h-24l20.6-181.6h32.8l20.6,181.6h-24ZM78.1,397.2l-6.9,80.8h13.7l-6.8-80.8Z"/>
        </g>
      </g>
      <g id="resist">
        <g id="word-italic">
          <g>
            <path class="cls-6" d="M752.5,227.4h-32.6l-23.5,119h-41.8l23.7-119h-35l7.3-33.8h109.2l-7.3,33.8Z"/>
            <path class="cls-6" d="M596.5,245.8c-2.3-5-2.6-5.8-4-7.8-5.3-8.2-14.5-12.8-25.1-12.8s-15.8,3.7-15.8,10.2,2.8,7.8,12.6,11.5c8.1,3,13,4.8,14.7,5.4,12.2,4.8,20.5,8.9,25.4,12.8,9.2,7.1,14.1,18.2,14.1,31.4,0,32.7-24.9,53.9-62.9,53.9s-43.5-7.6-55.8-21.6c-3.4-3.9-5.1-6.3-9.4-13.6l32.4-25.5c1.7,5.2,2.4,7.1,4.9,10.4,6.6,9.5,17.5,15.1,29.2,15.1s16.8-5,16.8-13-1.5-6.5-4-8.4c-3-2.2-8.3-4.3-20.2-8.7-13.9-5.2-18.5-7.1-24.7-11.9-10-7.8-15.1-18.4-15.1-32.5,0-31.2,22.8-50.8,59.1-50.8s45.8,10,58.6,32l-31.1,24Z"/>
            <path class="cls-6" d="M475.4,346.4h-41.6l30.3-152.8h41.6l-30.3,152.8Z"/>
            <path class="cls-6" d="M408.4,245.8c-2.3-5-2.6-5.8-4-7.8-5.3-8.2-14.5-12.8-25.1-12.8s-15.8,3.7-15.8,10.2,2.8,7.8,12.6,11.5c8.1,3,13,4.8,14.7,5.4,12.2,4.8,20.5,8.9,25.4,12.8,9.2,7.1,14.1,18.2,14.1,31.4,0,32.7-24.9,53.9-62.9,53.9s-43.5-7.6-55.8-21.6c-3.4-3.9-5.1-6.3-9.4-13.6l32.4-25.5c1.7,5.2,2.4,7.1,4.9,10.4,6.6,9.5,17.5,15.1,29.2,15.1s16.8-5,16.8-13-1.5-6.5-4-8.4c-3-2.2-8.3-4.3-20.2-8.7-13.9-5.2-18.5-7.1-24.7-11.9-10-7.8-15.1-18.4-15.1-32.5,0-31.2,22.8-50.8,59.1-50.8s45.8,10,58.6,32l-31.1,24Z"/>
            <path class="cls-6" d="M302.9,227.4h-60.1l-4.7,23.6h57.8l-6.6,33.5h-57.8l-5.7,27.9h69.5l-6.4,34h-111.3l30.3-152.8h101.5l-6.6,33.8Z"/>
            <path class="cls-6" d="M170.7,268.7c-5.5,7.8-10.7,11.7-23.5,16.9l23.7,60.8h-44.8l-17.5-54.7h-15.1l-10.9,54.7h-41.2l30.1-152.8h52.6c14.9,0,20.7.4,26.9,1.7,17.3,3.5,28.4,20.1,28.4,42.4s-3,22.7-8.7,30.9ZM120,225.9h-13.6l-6.8,34.6h15.4c7.9,0,12.8-.9,16.2-2.8,5.1-2.8,8.1-8.9,8.1-16.2,0-10.8-5.8-15.6-19.4-15.6Z"/>
          </g>
        </g>
        <g id="word-normal" class="cls-7">
          <g>
            <path class="cls-6" d="M704.6,235.2v115.1h-42v-115.1h-33.9v-37.6h109.6v37.6h-33.7Z"/>
            <path class="cls-6" d="M605.9,340.8c-17.1,14.5-39.6,14.1-45.2,14.1-19.4,0-37.9-3.7-53.7-17.3-6-5.2-9.6-9.7-14.1-16.4l32.2-23.6c2.8,5.2,4.5,7.6,6.4,9.3,7.5,7.6,21.5,10.8,30.7,10.8s20.2-4.1,20.2-11.7-.8-3-.9-3.7c-.9-2.2-2.4-4.1-6.4-5.6-4.7-1.9-13.2-3.2-25.1-6.1-18.3-4.1-28.1-9.3-34.5-15.8-4.1-4.1-11.7-14.3-11.5-30.9,0-4.1.2-13.4,4.9-23.2,13.6-28.6,48.8-28.1,53.9-28.1s30.7.4,49.7,16.4c4.1,3.5,6.6,6.5,10.2,10.6l-26.6,25.3c-1.7-2.6-2.6-3.9-3.8-5-7.7-8.2-21.1-10.6-31.1-10.6s-6,0-10,1.9c-.8.4-5.3,2.8-5.3,8s1.5,5.4,3.4,6.9c3.4,2.4,11.3,4.1,14.9,4.8,4.7.9,17.1,2.8,30.3,7.8,8.3,3,28.8,11.5,28.8,42s-11.7,35.1-17.5,40Z"/>
            <path class="cls-6" d="M440.9,350.3v-152.8h42.2v152.8h-42.2Z"/>
            <path class="cls-6" d="M409.6,340.8c-17.1,14.5-39.6,14.1-45.2,14.1-19.4,0-37.9-3.7-53.7-17.3-6-5.2-9.6-9.7-14.1-16.4l32.2-23.6c2.8,5.2,4.5,7.6,6.4,9.3,7.5,7.6,21.5,10.8,30.7,10.8s20.2-4.1,20.2-11.7-.8-3-.9-3.7c-.9-2.2-2.4-4.1-6.4-5.6-4.7-1.9-13.2-3.2-25.1-6.1-18.3-4.1-28.1-9.3-34.5-15.8-4.1-4.1-11.7-14.3-11.5-30.9,0-4.1.2-13.4,4.9-23.2,13.6-28.6,48.8-28.1,53.9-28.1s30.7.4,49.7,16.4c4.1,3.5,6.6,6.5,10.2,10.6l-26.6,25.3c-1.7-2.6-2.6-3.9-3.8-5-7.7-8.2-21.1-10.6-31.1-10.6s-6,0-10,1.9c-.8.4-5.3,2.8-5.3,8s1.5,5.4,3.4,6.9c3.4,2.4,11.3,4.1,14.9,4.8,4.7.9,17.1,2.8,30.3,7.8,8.3,3,28.8,11.5,28.8,42s-11.7,35.1-17.5,40Z"/>
            <path class="cls-6" d="M181.9,350.3v-152.8h105.3v33.5h-63.1v22.7h59v33.1h-59.1v30.3h68.9v33.1h-110.9Z"/>
            <path class="cls-6" d="M128.8,350.3l-25.8-53.9h-12.2v53.9h-42.2v-152.8h72c3.8,0,7.7.2,11.5.6,5.8.6,22.8,2.4,32.4,20.8,2.3,4.5,6.2,14.1,6.2,27.5s-4.9,27.7-15.6,35.9c-2.8,2.2-5.3,3.5-11.7,6.3l32.6,61.7h-47.1ZM126,236.5c-1.3-2.2-3.2-3.5-4-3.9-4.3-2.8-9.2-3-14.1-3h-17.1v35.5h17.5c7.7,0,16.4-1.1,19.4-11,.2-.9.9-3.7.9-6.7s-.9-7.8-2.6-10.8Z"/>
          </g>
        </g>
      </g>
    </g>
  </g>
</svg>
