<svg
	version="1.1"
	id="resist-autocratic-despair"
	xmlns="http://www.w3.org/2000/svg"
	xmlns:xlink="http://www.w3.org/1999/xlink"
	x="0px"
	y="0px"
	viewBox="0 0 800 800" style="enable-background:new 0 0 800 800;" xml:space="preserve">
	<path id="moonmaiden" className="neutral" d="M502.5,67.9c1.4,0.8,4.3,2,6.6,4c2.5,2.1,4.4,5,6.4,7.6c1.2,1.6,2.1,3.5,3.6,5 c3.5,3.7,4.9,7.8,3.3,12.8c-0.4,1.2-0.1,2.7-0.4,4c-0.4,2.1-0.8,4.3-1.8,6.2c-0.9,2.1-3.6,4.3-3.1,5.7c0.9,2.8,3.2,5.3,5.3,7.6 c3.2,3.5,6.7,6.8,10.4,10c6.7,5.5,11.5,12,13.9,20.1c4.4,14.7,9,29.2,13.1,43.8c1.4,5-2.6,8.7-5.1,12.5 c-7.5,10.9-15.5,21.6-23.4,32.3c-2.9,3.9-5.1,7.9-4.3,12.8c1.5,8.9-2.3,14.9-10.6,18.8c-7.3,3.5-11.8,9.5-15.5,16.5 c-2.5,4.8-5.9,9.3-9.7,13.2c-18,18.4-37.6,34.9-61.5,45.9c-14.6,6.7-29.8,11.4-46,13c-9.5,0.9-19,2.1-28.4,2.4 c-15,0.5-29.7-1.7-44.2-4.8c-17.1-3.8-34.2-8.1-49.7-16.5c-10.8-5.8-20.8-12.6-29.8-20.6c-14.8-13.1-27.8-27.8-37.8-44.5 c-8.7-14.6-16.2-29.6-18.2-46.8c-0.6-4.8-2.3-9.5-4.3-13.9c-3.8-7.7-2.4-15.7-1.2-23.2c2-12.2,5.7-24.1,8.1-36.3 c2.3-11.7,7.5-22.1,13.2-32.3c8.1-14.2,18.5-27,30.4-38.5c15.3-14.7,32.8-26.4,54-32.6c10.3-3,20.2-7.8,30.3-11 c6.8-2.1,14.1-2.8,21.1-3.8c10.9-1.5,21.9-2.4,32.8-4.1c10.3-1.7,20.4-4.3,30.5-6.2c1.5-0.2,3.5,0.6,4.9,1.5 c19.4,12.2,38.9,24.4,58.3,36.7c6.6,4.1,13.2,8.3,19.9,12.3c0.9,0.6,2.6,0.9,3.2,0.4c4-2.8,8.7-2.7,13.2-3.7 C494.3,73.6,497.6,70.7,502.5,67.9L502.5,67.9z M474.8,97.6c-4.5,2.1-7,1-8.2-3.4c-0.7-2.6-2.1-5.6-4.2-7.3 c-8.1-7.2-16.6-14.1-25.1-20.9C426,57,414.9,48,402.9,40.1c-11.8-7.7-25.5-7.2-39-4.6c-11.7,2.2-22.7,6.5-33.1,12.1 c-13.2,7.2-24.5,16.7-33.6,28.4c-7.8,10-9.8,22.3-15,33.3c-0.5,1-0.1,2.5-0.1,3.7c-0.2,7.1-0.7,14.2-0.8,21.3 c0,5.7,0.1,11.5,0.8,17.3c0.8,7.3,2.3,14.4,3.5,21.6c0.2,1.3,0.7,3.6,1.7,3.8c4.3,1.1,2.5,3.4,1.2,5.3c-1.4,2-3.2,3.8-4.9,5.6 c-5.1,5-5.2,7.2-1.3,13c6.1,9.2,14.1,16.6,23,23c-3.2,4.3-7.5,6.6-12.6,8.1c-4,1.1-7.7,3-11.6,4.6c-2.3,1-2.1,2-0.8,4 c3.7,6.1,7.4,12.2,10.5,18.5c1.5,3.1,4.3,6.4,2,10.3c-3.2,5.5-2.1,10.8,1.8,15c6.4,6.9,13,13.8,20.2,19.9c4.5,3.9,10.3,6.4,15.6,9.6 c2.1,1.2,4,1.2,5.8-0.9c3.2-3.7,6.7-7.1,10.1-10.6c12.8-13.5,21-29.4,27.6-46.2c5.4-13.8,10.9-27.5,19.7-39.7c1.6-2.1,3.1-3,5.8-3 c4.7,0,9.4-0.1,14.1-0.9c5.1-0.9,6.7-5.6,3.6-9.5c-2.3-2.9-2.5-6.5,0.1-8c4.1-2.3,8.4-4.1,13.2-2.4c6.9,2.4,14,4.4,20.4,7.4 c14.1,6.7,28,14,42,21.1c1.4-2.8,3.1-5.9,4.5-9.1c3.3-7.2,6.8-14.2,9.7-21.5c2.3-5.5-0.5-9.6-6.4-11c-2.9-0.7-5.7-1.5-8.4-2.5 c-5.1-2.1-6-6.6-2.3-10.5c3.5-3.7,7.3-7.3,10.7-11.2c1.8-2.1,3.3-4.6,4.5-7.2c3.1-6.2,2.9-12.8,2.4-19.3c-0.1-1.9-1.8-4.1-3.4-5.5 c-3-2.4-5.9-0.2-8.6,1.2c-3.9,2.1-7.3,1.6-10-1.5c-2.9-3.2-6-6.1-9.2-9.3c6.1-5.3,0.9-10.7-1.4-16.6L474.8,97.6z M395.2,328.3 c5.1-1.5,10.3-3.3,15.5-4.3c7.6-1.5,10.6-6.7,13-12.9c1.1-2.8,0.4-4.8-0.9-7.3c-1.1-2.2-1.4-5.2-0.8-7.5c0.8-3.5,2.6-6.8,4.3-10.1 c2.9-5.5,3.7-10.8,1.8-17c-2.9-8.6-5.9-17.4-6.2-26.7c-0.2-7.4-4.3-11.2-12.2-10.9c-4.8,0.2-5.6,1-5.7,5.6c-0.1,5.7-1.9,10.5-6.1,15 c-7.3,8.1-14,16.7-20.4,25.4c-1.9,2.6-4.3,6.4,0.4,9.5c0.7,0.6,0.7,2.8,0.4,4c-0.8,3.4-4.3,3.2-6.7,3c-7.6-0.4-11.7,3.4-14.7,9.5 c-1,2.1-3.9,3.7-6.2,4.6c-3.3,1.2-7.3,1.2-10.5,2.7c-1.8,0.8-2.9,3.4-3.5,5.4c-0.1,0.5,2.6,2.2,4.3,2.7c3.1,1,6.3,1.3,9.4,2.2 c10,2.9,20.2,5.3,30.9,4.5c2.1-0.1,4.2,0.5,6.2,0.9c2.4,0.6,4.8,1,7.6,1.5V328.3z M441,235.2c2,8.3,0,16-1.4,23.9 c-1.5,8.1-3.9,16,1.6,23.9c3.1,4.5,2,5.6-2.4,9.4c-3.6,3-8.5,5.5-8.2,11.3c0.2,5.4,0.1,10.9,0.1,16.7c2.9-0.1,6.1,0.3,8.6-0.7 c6.2-2.6,12.4-5.3,17.9-8.9c17.7-11.5,34.5-24.2,49.9-38.5c2-1.8,4.2-3.4,2.4-6.8c-3.4,0-7.3,0.6-10.8-0.1 c-10.7-2.1-20.5-6.5-29.7-12.2c-9.2-5.9-18.5-11.9-27.9-18L441,235.2z M535.4,218.2c1.9-2.6,3.7-4.8,5.2-7.3s2.4-5.2,4-7.5 c4.8-7.2,1.7-11.4-5.5-16.1C537.9,197.4,536.6,207.6,535.4,218.2L535.4,218.2z"/>
	<rect id="despair-bg" className="primary"  x="37.2" y="532" width="726" height="240.1"/>
	<g id="copy">
		<g id="despair" className="secondary">
			<path d="M693.2,751.3l-20.1-83.5h-5.9v83.5h-33.5V555.3h50.5c19.7,0,30.4,6.7,35,21.4c2.3,7.5,3.4,18.3,3.4,33.9 c0,30.5-4.2,41.9-18.6,51.1l24.9,89.6H693.2z M690.1,598.3c-0.6-6.4-4.2-9.2-11.9-9.2h-10.9v45h11.1c9.4,0,12.4-4.4,12.4-20.3 C690.7,608.6,690.5,601.7,690.1,598.3z"/>
			<path d="M578,751.3V555.3h35.8v195.9H578z"/>
			<path d="M533.4,751.3l-5-44.7h-27.4l-5.2,44.7h-35l30-195.9h47.8l30,195.9H533.4z M514.9,586.4l-10.1,87.1h19.9 L514.9,586.4z"/>
			<path d="M456.5,645.8c-0.2,3.9-0.8,19.7-10.5,28c-6.7,5.8-14.2,5.8-22,5.8h-26v71.6h-35.6V555.3h59.7 c8.4,0,11.5,0.3,15.7,1.7c19.9,6.7,18.9,30.3,18.9,38.3v40.5C456.7,639.1,456.7,642.5,456.5,645.8z M422.9,599.4 c-0.2-2.5-0.4-8.6-5.9-10c-2.3-0.6-10.9-0.8-19.1-0.8v56.6h12.2c0.2,0,5,0.3,8-1.4c5.2-2.8,5-11.1,5-17.2 C423.4,614.2,423.4,603.9,422.9,599.4z"/>
			<path d="M339.6,740.2c-6.7,8.6-16.6,13.9-36.5,13.9c-23.7,0-36.5-8-42.3-21.9c-3.8-9.4-4-21.6-4-31.9v-11.7h35.4v15.5 c0,4.4,0,15.5,10.5,15.5c10.1,0,11.3-7.5,11.3-13.6c0-8-0.2-12.2-1.7-15.5c-1.9-4.2-5.4-7.5-11.7-13.6l-21.4-20.5 c-3.8-3.6-7.5-6.9-11.1-11.1c-6.1-7.5-9.6-15.8-9.6-36.9c0-3.1,0-9.2,0.8-16.9c0.6-6.9,2.3-25.3,17.2-33.9 c8-4.7,19.7-5.8,28.1-5.8c6.7,0,12.8,0.6,19.5,2.5c12.2,3.6,16.3,12.2,18.6,18.9c4.4,13,3.8,28.6,3.6,42.5h-33.7v-13.9 c0-10-0.8-16.4-10.1-16.4c-1,0-3.4,0-5.7,2.2c-3.6,3.3-3.1,10.3-3.1,15.3c0,5.3-0.2,10.3,2.1,14.4c0.8,1.7,2.1,3.1,4.6,5.6 l30.4,28c1.7,1.4,6.3,5.3,10.5,10.8c5.9,7.8,8.6,16.4,8.6,37.5C349.8,714.3,348.6,728.8,339.6,740.2z"/>
			<path d="M173.2,751.3V555.3h76.5v34.4H209V635h38.3v34.4H209v47.2h40.6v34.7H173.2z"/>
			<path d="M149.1,737.4c-8.2,13-21.4,13.9-32.9,13.9H60.7V555.3h54.1c1,0,10.5,0,16.6,1.7c4,1.1,13.6,4.4,19.7,17.2 c3.4,6.9,4.8,13.9,4.8,30v97.7C155.8,714.1,155.4,727.4,149.1,737.4z M119.8,606.9c0-0.3,0.2-5-0.4-7.8c-2.1-10.8-11.1-10-13-10 H95.5v128.2h11.3c3.8,0,4.4-0.3,6.5-1.1c6.1-2.2,6.5-8.9,6.5-15.5V606.9z"/>
		</g>
		<g id="autocratic" className="primary">
			<path d="M720.2,523.4c-6.8,10.1-17.3,10.5-25.9,10.5c-12.4,0-18.8-3.3-23.4-9.4c-1-1.1-3.1-3.9-4.6-8.8 c-1.7-5.3-2.4-10.3-2.4-21.7V418c0-12.3,0.7-22.1,6.5-31.1c4.5-7,11.4-12.3,24.7-12.3c17.3,0,25.8,9,29.3,20.8 c2.1,6.8,2.2,13.3,2.2,20.6v18.6h-23.4v-19.5c0-2.2,0-4.2-0.3-6.3c-1-6.3-4.5-7.2-7.9-7.2c-1.8,0-3.3,0.2-4.7,1.8 c-3.1,3.3-2.6,11.4-2.6,12.3v76.8c0,9.8,0.8,15.3,7.9,15.3c0.3,0,2.1,0,3.5-0.7c4.2-2.4,4-9.2,4-14.7v-19.3h24.1v13.8 C727.2,500,726.9,513.6,720.2,523.4z"/>
			<path d="M628.2,532V377.5h23.8V532H628.2z"/>
			<path d="M600.9,404.4V532h-24.1V404.4h-19.5v-26.9h63.3v26.9H600.9z"/>
			<path d="M537.5,532l-3.3-35.2h-18.3l-3.5,35.2h-23.3l19.9-154.4h31.8L560.8,532H537.5z M525.3,402l-6.7,68.7h13.2 L525.3,402z"/>
			<path d="M463.4,532L450,466.1h-3.9V532h-22.3V377.5h33.6c13.1,0,20.2,5.3,23.3,16.8c1.5,5.9,2.2,14.4,2.2,26.7 c0,24.1-2.8,33-12.4,40.3l16.6,70.7H463.4z M461.3,411.4c-0.4-5-2.8-7.2-7.9-7.2h-7.2v35.4h7.4c6.3,0,8.2-3.5,8.2-16 C461.7,419.5,461.6,414.1,461.3,411.4z"/>
			<path d="M407,523.4c-6.8,10.1-17.3,10.5-25.9,10.5c-12.4,0-18.8-3.3-23.4-9.4c-1-1.1-3.1-3.9-4.6-8.8 c-1.7-5.3-2.4-10.3-2.4-21.7V418c0-12.3,0.7-22.1,6.5-31.1c4.5-7,11.4-12.3,24.7-12.3c17.3,0,25.8,9,29.3,20.8 c2.1,6.8,2.2,13.3,2.2,20.6v18.6H390v-19.5c0-2.2,0-4.2-0.3-6.3c-1-6.3-4.5-7.2-7.9-7.2c-1.8,0-3.3,0.2-4.7,1.8 c-3.1,3.3-2.6,11.4-2.6,12.3v76.8c0,9.8,0.8,15.3,7.9,15.3c0.3,0,2.1,0,3.5-0.7c4.2-2.4,4-9.2,4-14.7v-19.3h24.1v13.8 C413.9,500,413.7,513.6,407,523.4z"/>
			<path d="M334.8,518.4c-4.5,9.2-11.4,15.5-26.2,15.5c-8.9,0-17.6-1.3-24.5-10.9c-1.3-1.8-4-5.9-5.7-12.7 c-1.7-6.3-2.4-12.3-2.4-25.6v-63.7c0-10.9,0.6-19.7,4.6-29.1c6.4-14.9,16.9-17.5,27.4-17.5c8.5,0,17,1.5,23.7,10.7 c1.7,2.4,4.7,7.2,6.5,15.5c1.7,7.9,1.7,15.7,1.7,23.8v59.1C340,496.3,339.8,507.9,334.8,518.4z M316.3,414.5c0-3.3,0-3.7-0.3-5.5 c-1.1-6.6-4.9-7-8.4-7c-0.4,0-2.9-0.2-4.7,1.3c-3.3,2.6-2.9,10.7-2.9,11.2v79.2c0,6.1-0.3,13.1,8.1,13.1c0.4,0,3.1,0,4.9-1.3 c3.1-2.4,3.3-7.2,3.3-11.8V414.5z"/>
			<path d="M249.9,404.4V532h-24.1V404.4h-19.5v-26.9h63.3v26.9H249.9z"/>
			<path d="M197.7,506.6c-2.1,16.2-9.3,27.8-29.5,27.8c-16.9,0-25.8-8.3-29.3-19.9c-2.4-7.9-2.4-16.4-2.4-24.7V377.5 h23.7v116.4c0,0.4,0,4.6,0.7,7.2c1.5,6.3,5.7,6.6,6.8,6.6c0.7,0,2.4-0.2,4-1.8c2.9-2.4,2.9-6.8,2.9-11.4v-117h23.8v111.1 C198.5,490.2,198.7,499.4,197.7,506.6z"/>
			<path d="M107,532l-3.3-35.2H85.4L81.9,532H58.6l19.9-154.4h31.8L130.3,532H107z M94.7,402L88,470.7h13.2L94.7,402z"/>
		</g>
		<g id="resist-tm" className="contrast">
				<path id="tm-path" d="M751.4,200h-2.6v7.5h-2.2V200H744v-2h7.4 V200z M763.2,207.5H761l-0.8-5.4l-2,5.4h-1.4l-2.1-5.3l-0.8,5.3h-2.2l1.4-9.4h2.1l2.3,5.7l2.2-5.7h2.1L763.2,207.5z"/>
				<polygon points="736.3,209.5 729.2,246.2 700.9,246.2 680.4,363 640.4,363 661,246.2 630.5,246.2 637.6,209.5 			"/>
				<path d="M603.2,312.2c0,16.2-5.4,30-15.5,39.7c-10.1,9.8-24.3,14.9-41,14.9c-21.3,0-39-7.8-50-21.9 c-3.1-4-4.7-6.6-8.4-13.6l-0.6-1.2l31.3-27.8l0.8,2.7c1.5,5.2,2.1,6.8,4,9.7c5.4,8.8,14.4,14.1,24,14.1c8,0,12.8-4.1,12.8-11 c0-2.8-1-5.3-2.8-6.9c-2.6-2.1-7.6-4.3-17.1-8.2c-11.9-5-16.2-7-22-12c-9.2-8.1-13.7-19-13.7-33.2c0-15.5,5-28.5,14.4-37.7 c9.4-9.1,22.9-14,38.9-14c24.8,0,41.1,10,52.6,32.4l0.6,1.2l-30,26.1l-1.1-2.8c-1.8-4.4-2.1-5.2-3.1-6.9 c-4.2-7.4-11.6-11.7-20.3-11.7c-5.5,0-12,1.4-12,8.2c0,3.8,1.4,6,9.9,9.6c4.3,1.8,7.6,3.2,9.8,4.1c1.4,0.6,2.4,1,3,1.2 c11.1,4.9,18.3,8.9,22.6,12.8C598.6,287.3,603.2,298.7,603.2,312.2z"/>
				<polygon points="495.6,209.5 468.5,363 428.7,363 455.8,209.5"/>
				<path d="M419.9,312.2c0,16.2-5.4,30-15.5,39.7c-10.1,9.8-24.3,14.9-41,14.9c-21.3,0-39-7.8-50-21.9 c-3.1-4-4.7-6.6-8.4-13.6l-0.6-1.2l31.3-27.8l0.8,2.7c1.5,5.2,2.1,6.8,4,9.7c5.4,8.8,14.4,14.1,24,14.1c8,0,12.8-4.1,12.8-11 c0-2.8-1-5.3-2.8-6.9c-2.6-2.1-7.6-4.3-17.1-8.2c-11.9-5-16.2-7-22-12c-9.2-8.1-13.7-19-13.7-33.2c0-15.5,5-28.5,14.4-37.7 c9.4-9.1,22.9-14,38.9-14c24.8,0,41.1,10,52.6,32.4l0.6,1.2l-30,26.1l-1.1-2.8c-1.8-4.4-2.1-5.2-3.1-6.9 c-4.2-7.4-11.6-11.7-20.3-11.7c-5.5,0-12,1.4-12,8.2c0,3.8,1.4,6,9.9,9.6c4.3,1.8,7.6,3.2,9.8,4.1c1.4,0.6,2.4,1,3,1.2 c11.1,4.9,18.3,8.9,22.6,12.8C415.3,287.3,419.9,298.7,419.9,312.2z"/>
				<polygon points="246.5,246.2 243.1,265.8 293.4,265.8 287.1,302.3 236.7,302.3 232.4,326.2 292.9,326.2 286.8,363 186.2,363 213.3,209.5 305.2,209.5 298.9,246.2"/>
				<path d="M174,285.9L174,285.9c5-8.3,7.8-19.4,7.8-31.3c0-22.8-10.3-39.8-26.1-43.3c-5.8-1.4-11.1-1.8-23.9-1.8H84.6 L57.8,363h39.5l9.5-53.7h10.3l15.3,53.7h42.8l-21-60.5C164.5,297.7,169.3,293.6,174,285.9z M124.2,275.2h-11.4l5.3-30.5h10.3 c10.8,0,15.2,3.9,15.2,13.5c0,6.6-2.3,12-6.3,14.5C134.7,274.4,130.6,275.2,124.2,275.2z"/>
		</g>
	</g>
</svg>
